<svg xmlns="http://www.w3.org/2000/svg" viewBox="0 0 36 36"><path fill="#B22334" d="M35.445 7C34.752 5.809 33.477 5 32 5H4C2.523 5 1.248 5.809.555 7L18 10.778L35.445 7zM.555 29c.693 1.191 1.968 2 3.445 2h28c1.477 0 2.752-.809 3.445-2L18 25.222L.555 29z"/><path fill="#EEE" d="M.555 7C.209 7.636 0 8.298 0 9v18c0 .702.209 1.364.555 2L18 25.222L35.445 29c.346-.636.555-1.298.555-2V9c0-.702-.209-1.364-.555-2L18 10.778L.555 7z"/><path fill="#3C3B6E" d="M18 25.222L0 29V9l18-3.778L36 9v20z"/><path fill="#FFF" d="M1.93 12.4l.742.976 1.159-.555-.742.977.742.976-1.159-.555-.742.977v-1.244l-1.159-.555 1.159-.555zm3.719 0l.742.976 1.159-.555-.742.977.742.976-1.159-.555-.742.977v-1.244l-1.159-.555 1.159-.555zm3.718 0l.742.976 1.159-.555-.742.977.742.976-1.159-.555-.742.977v-1.244l-1.159-.555 1.159-.555zm3.719 0l.742.976 1.159-.555-.742.977.742.976-1.159-.555-.742.977v-1.244l-1.159-.555 1.159-.555zm3.718 0l.742.976 1.159-.555-.742.977.742.976-1.159-.555-.742.977v-1.244l-1.159-.555 1.159-.555zM3.789 15.6l.742.976 1.159-.555-.742.977.742.976-1.159-.555-.742.977v-1.244l-1.159-.555 1.159-.555zm3.719 0l.742.976 1.159-.555-.742.977.742.976-1.159-.555-.742.977v-1.244l-1.159-.555 1.159-.555zm3.718 0l.742.976 1.159-.555-.742.977.742.976-1.159-.555-.742.977v-1.244l-1.159-.555 1.159-.555zm3.719 0l.742.976 1.159-.555-.742.977.742.976-1.159-.555-.742.977v-1.244l-1.159-.555 1.159-.555zm3.718 0l.742.976 1.159-.555-.742.977.742.976-1.159-.555-.742.977v-1.244l-1.159-.555 1.159-.555zM1.93 18.8l.742.976 1.159-.555-.742.977.742.976-1.159-.555-.742.977v-1.244l-1.159-.555 1.159-.555zm3.719 0l.742.976 1.159-.555-.742.977.742.976-1.159-.555-.742.977v-1.244l-1.159-.555 1.159-.555zm3.718 0l.742.976 1.159-.555-.742.977.742.976-1.159-.555-.742.977v-1.244l-1.159-.555 1.159-.555zm3.719 0l.742.976 1.159-.555-.742.977.742.976-1.159-.555-.742.977v-1.244l-1.159-.555 1.159-.555zm3.718 0l.742.976 1.159-.555-.742.977.742.976-1.159-.555-.742.977v-1.244l-1.159-.555 1.159-.555zM3.789 22l.742.976 1.159-.555-.742.977.742.976-1.159-.555-.742.977v-1.244l-1.159-.555 1.159-.555zm3.719 0l.742.976 1.159-.555-.742.977.742.976-1.159-.555-.742.977v-1.244l-1.159-.555 1.159-.555zm3.718 0l.742.976 1.159-.555-.742.977.742.976-1.159-.555-.742.977v-1.244l-1.159-.555 1.159-.555zm3.719 0l.742.976 1.159-.555-.742.977.742.976-1.159-.555-.742.977v-1.244l-1.159-.555 1.159-.555zm3.718 0l.742.976 1.159-.555-.742.977.742.976-1.159-.555-.742.977v-1.244l-1.159-.555 1.159-.555z"/></svg>